<?xml version="1.0" encoding="UTF-8"?> <svg xmlns="http://www.w3.org/2000/svg" width="98" height="101" viewBox="0 0 98 101" fill="none"><path d="M59.7681 38.5008H79.1351V10.6184C81.5426 11.292 83.8351 11.9355 86.1233 12.579C89.5067 13.5272 92.8773 14.4968 96.2691 15.4106C96.8572 15.5651 97.1043 15.771 97.1043 16.4188C97.0532 39.1357 97.0233 61.8569 96.9893 84.5739C96.9893 84.7283 96.968 84.887 96.9509 85.1273C91.4285 86.6761 85.906 88.2249 80.1876 89.8251V57.9442C73.3101 58.5964 66.6073 59.2356 59.9386 59.8663C59.7127 60.2953 59.8065 60.6814 59.8065 61.0547C59.7937 72.2565 59.7852 83.4541 59.7894 94.656C59.7894 95.218 59.734 95.5655 59.0821 95.75C53.1889 97.3889 47.3085 99.0664 41.4196 100.727C41.3302 100.748 41.2364 100.727 41.083 100.727V0C47.3426 1.75043 53.5256 3.47511 59.7767 5.22124V38.5008H59.7724H59.7681Z" fill="white"></path><path d="M0.954102 89.5375V59.3642C6.94954 59.2011 12.8768 59.1582 18.8893 59.1754V88.0102C12.9407 88.5165 6.97936 89.0227 0.954102 89.5375Z" fill="white"></path><path d="M1.02686 10.5797C4.38464 11.086 7.69128 11.5879 10.9937 12.0899C13.3629 12.446 15.7236 12.8235 18.1013 13.1582C18.6978 13.2397 18.9578 13.437 18.9578 14.1063C18.9365 22.8198 18.9407 31.5376 18.9407 40.2512C18.9407 40.4356 18.9066 40.6201 18.8853 40.8733H1.09077C0.890496 40.1825 0.818055 12.1543 1.02259 10.5754L1.02686 10.5797Z" fill="white"></path></svg> 